<svg width="55" height="55" viewBox="0 0 55 55" fill="none" xmlns="http://www.w3.org/2000/svg">
<path d="M27.5 0C20.2082 0 13.2086 2.8991 8.05664 8.05449C2.89937 13.2119 0.00142858 20.2064 0 27.5C0 34.7905 2.90039 41.7901 8.05664 46.9455C13.2086 52.1009 20.2082 55 27.5 55C34.7918 55 41.7914 52.1009 46.9434 46.9455C52.0996 41.7901 55 34.7905 55 27.5C55 20.2095 52.0996 13.2099 46.9434 8.05449C41.7914 2.8991 34.7918 0 27.5 0Z" fill="url(#paint0_linear_38_42)"/>
<path d="M12.062 27.193C20.1166 23.5241 25.4863 21.1051 28.1712 19.9365C35.8459 16.5994 37.4387 16.0198 38.479 16.0002C38.7078 15.9963 39.2171 16.0555 39.5495 16.3365C39.8257 16.5734 39.9034 16.8939 39.9423 17.1189C39.9768 17.3437 40.0243 17.856 39.9855 18.256C39.5711 22.824 37.7711 33.9091 36.856 39.0256C36.4718 41.1904 35.7078 41.9162 34.9697 41.9871C33.364 42.1415 32.1467 40.8785 30.5928 39.8137C28.1626 38.1467 26.7899 37.1094 24.4288 35.4831C21.7008 33.6035 23.4705 32.5703 25.0245 30.8821C25.4302 30.4402 32.5006 23.7168 32.6345 23.107C32.6517 23.0307 32.669 22.7464 32.505 22.5965C32.3453 22.4462 32.1079 22.4976 31.9352 22.5383C31.6892 22.596 27.8086 25.2809 20.2807 30.5923C19.1799 31.3841 18.1828 31.77 17.285 31.7497C16.3008 31.7276 14.4016 31.1665 12.9901 30.6871C11.2635 30.099 9.88653 29.788 10.0074 28.7891C10.0678 28.2691 10.7541 27.7369 12.062 27.193Z" fill="white"/>
<defs>
<linearGradient id="paint0_linear_38_42" x1="2750" y1="0" x2="2750" y2="5500" gradientUnits="userSpaceOnUse">
<stop stop-color="#2AABEE"/>
<stop offset="1" stop-color="#229ED9"/>
</linearGradient>
</defs>
</svg>
