<svg width="55" height="55" viewBox="0 0 55 55" fill="none" xmlns="http://www.w3.org/2000/svg">
<path d="M3.85 3.85C7.28501e-07 7.73667 0 13.9517 0 26.4V28.6C0 41.03 7.28501e-07 47.245 3.85 51.15C7.73667 55 13.9517 55 26.4 55H28.6C41.03 55 47.245 55 51.15 51.15C55 47.2633 55 41.0483 55 28.6V26.4C55 13.97 55 7.755 51.15 3.85C47.2633 7.28501e-07 41.0483 0 28.6 0H26.4C13.97 0 7.755 7.28501e-07 3.85 3.85ZM9.27667 16.7383H15.5833C15.785 27.225 20.405 31.6617 24.0717 32.5783V16.7383H29.9933V25.7767C33.605 25.3917 37.4183 21.2667 38.7017 16.72H44.605C44.1238 19.0736 43.1624 21.3027 41.7807 23.268C40.3991 25.2332 38.6269 26.8923 36.575 28.1417C38.8649 29.281 40.8872 30.893 42.5084 32.8713C44.1296 34.8496 45.3128 37.1492 45.98 39.6183H39.4717C38.0783 35.2733 34.595 31.9 29.9933 31.4417V39.6183H29.26C16.72 39.6183 9.57 31.0383 9.27667 16.7383Z" fill="#3562FF"/>
</svg>
