<svg width="55" height="55" viewBox="0 0 55 55" fill="none" xmlns="http://www.w3.org/2000/svg">
<path d="M40.7057 33.7325C40.7057 36.1418 41.3904 37.1026 43.1807 37.1026C47.1711 37.1026 49.712 32.0116 49.712 23.5448C49.712 10.6036 40.2932 4.40837 28.5341 4.40837C16.437 4.40837 5.43412 12.531 5.43412 27.8815C5.43412 42.5435 15.0591 50.5285 29.8404 50.5285C34.8591 50.5285 38.2279 49.9778 43.3813 48.2569L44.487 52.8661C39.3995 54.521 33.9625 55 29.7716 55C10.3841 55 0 44.3304 0 27.8786C0 11.2891 12.0341 0 28.6029 0C45.8591 0 55 10.3254 55 22.9912C55 33.7297 51.6341 41.9211 41.0466 41.9211C36.2313 41.9211 33.0716 39.9937 32.6591 35.723C31.4216 40.4727 28.1216 41.9211 23.65 41.9211C17.6688 41.9211 12.65 37.3063 12.65 28.0163C12.65 18.6546 17.0529 12.8723 24.9591 12.8723C29.1529 12.8723 31.7654 14.5244 32.9284 17.1402L34.925 13.4919H40.7V33.7325H40.7057ZM32.2523 24.6462C32.2523 20.8631 29.4307 19.277 27.0932 19.277C24.5495 19.277 21.7336 21.3392 21.7336 27.3996C21.7336 32.2181 23.8648 34.9027 27.0932 34.9027C29.362 34.9027 32.2523 33.4572 32.2523 29.4647V24.6462Z" fill="#FABF4D"/>
</svg>
