<svg width="104" height="34" viewBox="0 0 104 34" fill="none" xmlns="http://www.w3.org/2000/svg">
<path fill-rule="evenodd" clip-rule="evenodd" d="M0 0L14.496 33.6H22.176L36.72 0H28.992L18.6186 23.9982L8.4 0H0ZM47.2534 19.584V27.36H65.5414V33.6H39.5254V0H64.9174V6.24H47.2534V13.536H62.8534V19.584H47.2534ZM79.3593 25.2197C79.3916 25.2388 79.424 25.2576 79.4565 25.2763V33.6H71.7285V0H79.4565V7.92371C76.454 9.64924 74.432 12.8885 74.432 16.6C74.432 19.9606 76.0897 22.934 78.632 24.7472C78.8671 24.9148 79.1098 25.0725 79.3593 25.2197ZM87.5901 7.10891C89.7078 7.81323 91.5109 9.20651 92.7336 11.023L102.977 0H94.3365L87.5901 7.10891ZM88.354 25.8016C90.6743 24.8114 92.544 22.9691 93.57 20.6679L103.793 33.6H94.7205L88.354 25.8016Z" fill="white"/>
<path d="M80.2893 24.5899C78.8394 23.8381 77.6214 22.7059 76.7658 21.3147C75.9102 19.9235 75.4494 18.3256 75.4326 16.6925C75.4158 15.0593 75.8438 13.4524 76.6706 12.0439C77.4975 10.6354 78.692 9.47842 80.1262 8.69701L80.9515 10.2118C79.7922 10.8435 78.8267 11.7787 78.1583 12.9172C77.49 14.0557 77.144 15.3546 77.1576 16.6748C77.1711 17.9949 77.5437 19.2865 78.2352 20.411C78.9268 21.5356 79.9114 22.4508 81.0834 23.0585L80.2893 24.5899Z" fill="white"/>
<path d="M86.4465 7.82843C87.7678 8.13185 89.0034 8.72984 90.0612 9.57773C91.119 10.4256 91.9715 11.5015 92.5552 12.7251L90.9982 13.4678C90.5264 12.4788 89.8373 11.6091 88.9823 10.9237C88.1272 10.2384 87.1284 9.75499 86.0604 9.50972L86.4465 7.82843Z" fill="white"/>
<path d="M93.1396 18.8759C92.7527 20.3564 91.9947 21.7137 90.9373 22.8197C89.8799 23.9256 88.5579 24.7438 87.0963 25.1967L86.5857 23.549C87.7671 23.1828 88.8357 22.5215 89.6904 21.6275C90.5452 20.7335 91.1579 19.6364 91.4706 18.4397L93.1396 18.8759Z" fill="white"/>
</svg>
